<svg xmlns="http://www.w3.org/2000/svg" xmlns:xlink="http://www.w3.org/1999/xlink" width="506" zoomAndPan="magnify" viewBox="0 0 379.5 379.500002" height="506" preserveAspectRatio="xMidYMid meet" version="1.0"><defs><clipPath id="8db31d6c61"><path d="M 27.007812 134.085938 L 352.078125 134.085938 L 352.078125 244.9375 L 27.007812 244.9375 Z M 27.007812 134.085938 " clip-rule="nonzero"/></clipPath><clipPath id="e66a4d5dcc"><path d="M 27.007812 134.085938 L 92 134.085938 L 92 198 L 27.007812 198 Z M 27.007812 134.085938 " clip-rule="nonzero"/></clipPath></defs><g clip-path="url(#e66a4d5dcc)"><path fill="#002fa7" d="M 35.089844 175.550781 C 49.015625 161.777344 62.84375 147.894531 76.875 134.21875 C 82.003906 138.898438 86.914062 143.816406 91.835938 148.707031 C 87.785156 150.828125 84.035156 153.625 81.226562 157.261719 C 77.78125 161.980469 75.84375 167.609375 72.386719 172.328125 C 69.71875 175.890625 65.722656 178.074219 61.867188 180.109375 C 57.273438 182.535156 52.546875 184.996094 48.941406 188.828125 C 46.417969 191.425781 44.519531 194.550781 42.957031 197.800781 C 37.765625 192.828125 32.84375 187.5625 27.53125 182.722656 C 30.292969 180.601562 32.585938 177.960938 35.089844 175.550781 Z M 35.089844 175.550781 " fill-opacity="1" fill-rule="nonzero"/></g><path fill="#002fa7" d="M 306.757812 187.503906 C 315.457031 172.105469 324.339844 156.816406 333.074219 141.4375 C 337.859375 156.664062 342.597656 171.90625 347.296875 187.152344 C 345.371094 187.1875 343.453125 187.195312 341.535156 187.210938 C 340.527344 183.492188 339.574219 179.75 338.496094 176.046875 C 331.980469 176.042969 325.46875 176.058594 318.957031 176.101562 C 316.835938 179.878906 314.8125 183.71875 312.683594 187.492188 C 310.707031 187.492188 308.726562 187.492188 306.757812 187.503906 Z M 306.757812 187.503906 " fill-opacity="1" fill-rule="nonzero"/><path fill="#002fa7" d="M 142.160156 143.863281 C 147.507812 143.878906 152.949219 143.347656 158.222656 144.535156 C 161.894531 145.433594 164.910156 148.414062 165.773438 152.105469 C 166.613281 156.007812 166.0625 160.394531 163.546875 163.601562 C 161.195312 166.714844 157.261719 168.160156 153.476562 168.402344 C 150.363281 168.535156 147.246094 168.425781 144.136719 168.476562 C 143.089844 175 142.429688 181.582031 141.445312 188.125 C 139.761719 188.136719 138.082031 188.148438 136.398438 188.136719 C 138.085938 173.351562 140.292969 158.628906 142.160156 143.863281 Z M 142.160156 143.863281 " fill-opacity="1" fill-rule="nonzero"/><path fill="#002fa7" d="M 175.492188 143.738281 C 183.160156 143.699219 190.824219 143.6875 198.488281 143.722656 C 198.332031 145.253906 198.160156 146.792969 197.992188 148.324219 C 192.011719 148.425781 186.03125 148.367188 180.050781 148.460938 C 179.394531 152.902344 178.851562 157.355469 178.265625 161.804688 C 184.21875 161.839844 190.167969 161.746094 196.117188 161.824219 C 195.976562 163.269531 195.800781 164.714844 195.648438 166.160156 C 189.671875 166.675781 183.648438 166.289062 177.660156 166.453125 C 176.855469 172.0625 176.097656 177.679688 175.375 183.304688 C 181.671875 183.269531 187.972656 183.316406 194.269531 183.304688 C 194.035156 184.808594 193.8125 186.316406 193.589844 187.820312 C 185.597656 188.257812 177.582031 187.996094 169.582031 188.066406 C 171.609375 173.296875 173.527344 158.511719 175.492188 143.738281 Z M 175.492188 143.738281 " fill-opacity="1" fill-rule="nonzero"/><path fill="#002fa7" d="M 208 143.679688 C 211.839844 143.6875 215.671875 143.640625 219.511719 143.679688 C 222.980469 143.722656 226.625 144.761719 229.113281 147.296875 C 233.132812 151.644531 232.980469 159.101562 228.894531 163.355469 C 226.097656 166.210938 221.996094 167.078125 218.160156 167.394531 C 222.722656 174.179688 227.328125 180.941406 231.914062 187.710938 C 229.804688 187.757812 227.691406 187.757812 225.578125 187.75 C 221.121094 180.917969 216.761719 174.023438 212.214844 167.246094 C 211.652344 167.265625 210.53125 167.300781 209.96875 167.316406 C 209.136719 174.140625 208.160156 180.953125 207.316406 187.773438 C 205.609375 187.804688 203.894531 187.808594 202.1875 187.796875 C 204.109375 173.085938 206.09375 158.390625 208 143.679688 Z M 208 143.679688 " fill-opacity="1" fill-rule="nonzero"/><path fill="#002fa7" d="M 242.632812 143.570312 C 250.324219 143.503906 258.011719 143.523438 265.699219 143.539062 C 265.5 145.015625 265.3125 146.488281 265.089844 147.964844 C 259.15625 148.039062 253.21875 147.980469 247.285156 148.042969 C 246.476562 152.496094 246.023438 157.007812 245.40625 161.484375 C 251.382812 161.53125 257.355469 161.433594 263.335938 161.457031 C 263.136719 163.011719 262.917969 164.5625 262.664062 166.113281 C 256.730469 166.101562 250.796875 166.128906 244.863281 166.125 C 243.9375 171.699219 243.3125 177.324219 242.511719 182.917969 C 248.8125 182.976562 255.113281 182.871094 261.417969 182.929688 C 261.164062 184.53125 260.914062 186.136719 260.695312 187.746094 C 252.699219 187.769531 244.699219 187.757812 236.703125 187.78125 C 238.765625 173.050781 240.605469 158.296875 242.632812 143.570312 Z M 242.632812 143.570312 " fill-opacity="1" fill-rule="nonzero"/><path fill="#002fa7" d="M 275.007812 143.5625 C 280.308594 143.136719 285.667969 143.175781 290.96875 143.652344 C 294.539062 143.902344 298.007812 145.347656 300.734375 147.660156 C 305.246094 151.492188 307.59375 157.484375 307.535156 163.332031 C 307.714844 170.699219 304.824219 178.445312 298.832031 182.980469 C 295.058594 185.894531 290.292969 187.117188 285.597656 187.398438 C 280.179688 187.703125 274.738281 187.726562 269.308594 187.703125 C 271.078125 172.976562 273.335938 158.300781 275.007812 143.5625 Z M 275.007812 143.5625 " fill-opacity="1" fill-rule="nonzero"/><path fill="transparent" d="M 212.546875 148.320312 C 216.691406 148.402344 221.4375 147.628906 224.953125 150.332031 C 228.316406 153.878906 226.707031 160.613281 222.160156 162.378906 C 218.464844 163.785156 214.421875 163.386719 210.554688 163.480469 C 211.171875 158.417969 211.859375 153.371094 212.546875 148.320312 Z M 212.546875 148.320312 " fill-opacity="1" fill-rule="nonzero"/><path fill="transparent" d="M 275.15625 182.875 C 276.667969 171.246094 278.308594 159.628906 279.765625 147.992188 C 285.113281 148.074219 291.003906 147.21875 295.722656 150.34375 C 301.039062 153.832031 302.894531 160.769531 302.082031 166.796875 C 301.546875 172.527344 298.378906 178.191406 293.109375 180.792969 C 287.566406 183.574219 281.144531 182.753906 275.15625 182.875 Z M 275.15625 182.875 " fill-opacity="1" fill-rule="nonzero"/><path fill="transparent" d="M 146.800781 148.535156 C 150.425781 148.769531 154.425781 147.753906 157.734375 149.675781 C 162.570312 152.574219 161.507812 160.894531 156.441406 162.996094 C 152.746094 164.542969 148.632812 164.070312 144.730469 164.125 C 145.289062 158.910156 146.152344 153.738281 146.800781 148.535156 Z M 146.800781 148.535156 " fill-opacity="1" fill-rule="nonzero"/><path fill="#002fa7" d="M 84.375 160.394531 C 86.949219 156.5 91.0625 153.988281 95.148438 151.917969 C 96.574219 153.292969 97.984375 154.699219 99.425781 156.066406 C 95.40625 158.308594 91.453125 160.992188 88.773438 164.808594 C 84.882812 170.089844 83.066406 176.710938 78.511719 181.53125 C 73.820312 185.972656 67.554688 188.09375 62.246094 191.640625 C 57.132812 194.90625 53.007812 199.691406 50.589844 205.269531 C 49.28125 203.917969 47.941406 202.601562 46.570312 201.308594 C 47.496094 197.894531 49.339844 194.777344 51.789062 192.238281 C 57.933594 185.425781 67.601562 183.507812 74.070312 177.105469 C 78.625 172.28125 80.683594 165.808594 84.375 160.394531 Z M 84.375 160.394531 " fill-opacity="1" fill-rule="nonzero"/><path fill="transparent" d="M 331.910156 153.871094 C 333.859375 159.777344 335.585938 165.746094 337.425781 171.675781 C 332.007812 171.777344 326.597656 171.746094 321.179688 171.730469 C 324.71875 165.757812 328.289062 159.800781 331.910156 153.871094 Z M 331.910156 153.871094 " fill-opacity="1" fill-rule="nonzero"/><path fill="#002fa7" d="M 92.636719 166.898438 C 95.222656 163.53125 98.886719 161.199219 102.652344 159.347656 C 104.257812 160.777344 105.789062 162.28125 107.265625 163.835938 C 103.632812 165.703125 100.265625 168.144531 97.582031 171.234375 C 93.578125 176.140625 91.59375 182.304688 87.925781 187.421875 C 82.632812 194.28125 73.515625 196.128906 67.066406 201.585938 C 63.292969 204.554688 60.339844 208.527344 58.449219 212.933594 C 57 211.558594 55.554688 210.171875 54.195312 208.695312 C 55.984375 202.335938 60.867188 197.292969 66.523438 194.117188 C 71.773438 191.054688 77.589844 188.691406 81.90625 184.292969 C 86.628906 179.253906 88.617188 172.421875 92.636719 166.898438 Z M 92.636719 166.898438 " fill-opacity="1" fill-rule="nonzero"/><path fill="#002fa7" d="M 100.394531 174.726562 C 103.035156 171.273438 106.765625 168.84375 110.664062 167.027344 C 115.972656 172.152344 121.195312 177.363281 126.433594 182.558594 C 109.949219 198.726562 93.597656 215.023438 77.144531 231.21875 C 72.070312 226.367188 67.03125 221.480469 62.042969 216.542969 C 62.882812 213.003906 64.878906 209.835938 67.378906 207.226562 C 73.796875 200.3125 83.988281 198.597656 90.242188 191.484375 C 94.589844 186.519531 96.523438 180.015625 100.394531 174.726562 Z M 100.394531 174.726562 " fill-opacity="1" fill-rule="nonzero"/><path fill="#002fa7" d="M 323.324219 204.179688 C 322.800781 201.574219 323.246094 197.542969 326.515625 197.09375 C 329.382812 196.9375 330.464844 199.910156 330.644531 202.253906 L 329.617188 202.332031 C 329.234375 200.957031 328.746094 199.398438 327.265625 198.847656 C 325.246094 198.527344 323.875 200.734375 324.234375 202.53125 C 324.421875 204.558594 326.835938 204.71875 328.28125 205.507812 C 330.246094 206.082031 330.804688 208.316406 330.828125 210.125 C 330.792969 212.0625 330.171875 214.417969 328.136719 215.144531 C 326.820312 215.367188 325.15625 215.476562 324.246094 214.300781 C 323.003906 213.003906 322.894531 211.125 322.675781 209.453125 L 323.734375 209.421875 C 323.871094 210.902344 324.492188 212.242188 325.375 213.417969 C 326.589844 213.265625 328.265625 213.804688 329.019531 212.523438 C 329.851562 211.574219 329.832031 210.175781 329.535156 209.023438 C 328.234375 206.507812 324.070312 207.1875 323.324219 204.179688 Z M 323.324219 204.179688 " fill-opacity="1" fill-rule="nonzero"/><path fill="#002fa7" d="M 137.285156 198.222656 C 138.585938 197.867188 140.277344 197.785156 141.222656 198.929688 C 142.429688 200.199219 142.667969 202.0625 142.398438 203.730469 C 141.230469 202.230469 140.808594 199.1875 138.28125 199.773438 C 135.957031 200.195312 135.894531 203.203125 136.839844 204.90625 C 138.832031 205.828125 141.703125 206.09375 142.539062 208.449219 C 142.851562 210.457031 143.136719 212.792969 141.925781 214.570312 C 141.21875 215.648438 139.871094 215.871094 138.761719 216.316406 C 135.933594 215.777344 134.835938 212.972656 134.675781 210.398438 C 134.957031 210.382812 135.511719 210.347656 135.792969 210.324219 C 136.0625 211.523438 136.449219 212.6875 136.921875 213.824219 C 138.027344 214.003906 139.257812 214.742188 140.292969 213.957031 C 141.996094 213.144531 142.183594 210.757812 141.335938 209.265625 C 139.796875 207.351562 136.308594 207.820312 135.460938 205.222656 C 134.917969 202.859375 135.027344 199.679688 137.285156 198.222656 Z M 137.285156 198.222656 " fill-opacity="1" fill-rule="nonzero"/><path fill="#002fa7" d="M 165.5 198.1875 C 167.953125 198.160156 170.410156 198.160156 172.859375 198.164062 C 172.867188 198.773438 172.867188 199.386719 172.871094 200.003906 C 170.800781 200.019531 168.730469 200.027344 166.664062 200.074219 C 166.636719 201.949219 166.648438 203.828125 166.660156 205.707031 C 168.59375 205.753906 170.53125 205.753906 172.46875 205.757812 C 172.460938 206.367188 172.457031 206.976562 172.449219 207.585938 C 170.519531 207.621094 168.589844 207.613281 166.664062 207.65625 C 166.636719 209.632812 166.625 211.609375 166.648438 213.589844 C 168.78125 213.789062 170.929688 213.753906 173.070312 213.746094 C 173.058594 214.203125 173.03125 215.121094 173.019531 215.578125 C 170.519531 215.570312 168.023438 215.578125 165.523438 215.570312 C 165.511719 209.773438 165.527344 203.980469 165.5 198.1875 Z M 165.5 198.1875 " fill-opacity="1" fill-rule="nonzero"/><path fill="#002fa7" d="M 197.347656 198.140625 C 197.640625 198.152344 198.238281 198.175781 198.535156 198.1875 C 198.550781 203.347656 198.546875 208.507812 198.539062 213.671875 C 198.710938 214.601562 198.277344 215.3125 197.476562 215.757812 C 197.210938 209.890625 197.445312 204.015625 197.347656 198.140625 Z M 197.347656 198.140625 " fill-opacity="1" fill-rule="nonzero"/><path fill="#002fa7" d="M 220.738281 198.128906 C 223.5 198.078125 226.257812 198.078125 229.019531 198.128906 C 229 198.738281 228.984375 199.347656 228.972656 199.957031 C 227.796875 199.980469 226.621094 199.992188 225.445312 200.019531 C 225.445312 205.074219 225.433594 210.128906 225.449219 215.1875 C 225.15625 215.199219 224.582031 215.210938 224.292969 215.222656 C 224.285156 210.164062 224.304688 205.109375 224.285156 200.054688 C 223.101562 200.019531 221.921875 199.996094 220.746094 199.972656 C 220.738281 199.359375 220.738281 198.746094 220.738281 198.128906 Z M 220.738281 198.128906 " fill-opacity="1" fill-rule="nonzero"/><path fill="#002fa7" d="M 232.519531 198.03125 C 234.15625 196.960938 236.378906 197.683594 237.398438 199.253906 C 239.445312 202.265625 239.421875 206.121094 239.058594 209.597656 C 238.671875 211.773438 237.894531 214.203125 235.871094 215.390625 C 234.046875 216.515625 231.644531 215.257812 230.796875 213.476562 C 229.082031 210.1875 229.023438 206.238281 229.757812 202.671875 C 230.21875 200.945312 230.828125 198.929688 232.519531 198.03125 Z M 232.519531 198.03125 " fill-opacity="1" fill-rule="nonzero"/><path fill="#002fa7" d="M 241.445312 204.671875 C 240.941406 202.167969 241.136719 198.570312 243.96875 197.5625 C 247.261719 196.777344 248.949219 200.476562 248.613281 203.203125 C 247.0625 202.273438 247.273438 199.679688 245.261719 199.382812 C 242.644531 198.796875 241.816406 202.125 242.675781 204 C 244.179688 205.550781 246.851562 205.398438 248.167969 207.203125 C 249.214844 209.046875 249.203125 211.382812 248.445312 213.335938 C 247.707031 215.371094 244.953125 216.496094 243.085938 215.257812 C 241.230469 214.179688 241.082031 211.804688 240.640625 209.9375 L 241.808594 209.824219 C 242.109375 211.492188 242.59375 213.804688 244.683594 213.921875 C 247.726562 214.441406 249.089844 209.667969 246.613281 208.195312 C 244.871094 207.09375 242.0625 207.011719 241.445312 204.671875 Z M 241.445312 204.671875 " fill-opacity="1" fill-rule="nonzero"/><path fill="#002fa7" d="M 255.460938 198.035156 C 257.476562 198.113281 259.703125 197.554688 261.597656 198.421875 C 263.65625 200.792969 263.550781 204.789062 261.636719 207.214844 C 260.179688 208.082031 258.304688 207.542969 256.6875 207.726562 C 256.605469 210.21875 256.640625 212.710938 256.648438 215.203125 C 256.355469 215.210938 255.765625 215.222656 255.464844 215.226562 C 255.472656 209.492188 255.460938 203.765625 255.460938 198.035156 Z M 255.460938 198.035156 " fill-opacity="1" fill-rule="nonzero"/><path fill="#002fa7" d="M 265.277344 197.953125 C 267.730469 197.949219 270.179688 197.929688 272.636719 197.972656 C 272.601562 198.574219 272.574219 199.175781 272.550781 199.78125 C 270.496094 199.78125 268.441406 199.769531 266.394531 199.816406 C 266.394531 201.617188 266.402344 203.425781 266.40625 205.226562 C 268.304688 205.246094 270.199219 205.238281 272.101562 205.246094 C 272.105469 205.695312 272.117188 206.601562 272.125 207.058594 C 270.238281 207.074219 268.355469 207.074219 266.472656 207.109375 C 266.378906 209.171875 266.382812 211.234375 266.414062 213.296875 C 268.558594 213.335938 270.707031 213.296875 272.859375 213.347656 C 272.800781 213.816406 272.679688 214.753906 272.621094 215.222656 C 270.167969 215.226562 267.71875 215.238281 265.265625 215.234375 C 265.289062 209.46875 265.273438 203.710938 265.277344 197.953125 Z M 265.277344 197.953125 " fill-opacity="1" fill-rule="nonzero"/><path fill="#002fa7" d="M 285.515625 197.949219 C 287.992188 197.644531 290.484375 197.71875 292.972656 197.738281 C 292.988281 198.316406 293 198.902344 293.019531 199.488281 C 291.003906 199.546875 288.972656 199.441406 286.980469 199.726562 C 286.757812 201.519531 286.734375 203.324219 286.703125 205.128906 C 288.628906 205.179688 290.554688 205.175781 292.480469 205.175781 C 292.472656 205.792969 292.472656 206.410156 292.472656 207.03125 C 290.613281 207.023438 288.753906 207.03125 286.898438 207.0625 C 286.667969 209.125 286.675781 211.195312 286.902344 213.253906 C 288.953125 213.253906 291.003906 213.230469 293.066406 213.242188 C 293.058594 213.6875 293.042969 214.582031 293.035156 215.035156 C 290.523438 215.050781 288.019531 215.105469 285.515625 215.082031 C 285.535156 209.371094 285.535156 203.660156 285.515625 197.949219 Z M 285.515625 197.949219 " fill-opacity="1" fill-rule="nonzero"/><path fill="#002fa7" d="M 295.265625 215.035156 C 295.257812 209.253906 295.257812 203.472656 295.265625 197.695312 C 297.457031 197.8125 300.390625 196.988281 301.917969 199.070312 C 304.097656 202.261719 303.796875 206.398438 303.316406 210.042969 C 302.875 212.015625 302.074219 214.546875 299.789062 214.957031 C 298.285156 215.105469 296.769531 215.027344 295.265625 215.035156 Z M 295.265625 215.035156 " fill-opacity="1" fill-rule="nonzero"/><path fill="#002fa7" d="M 308.15625 197.644531 C 308.429688 197.613281 308.984375 197.5625 309.261719 197.539062 C 310.425781 200.992188 310.863281 204.640625 311.730469 208.175781 C 312.214844 210.523438 312.941406 212.851562 312.957031 215.273438 C 312.671875 215.105469 312.09375 214.769531 311.800781 214.601562 C 311.523438 213.027344 311.195312 211.457031 310.839844 209.894531 C 309.394531 209.867188 307.949219 209.867188 306.511719 209.882812 C 306.066406 211.828125 305.683594 213.804688 304.878906 215.640625 C 304.019531 213.980469 304.835938 212.195312 305.148438 210.515625 C 306.207031 206.238281 306.960938 201.886719 308.15625 197.644531 Z M 308.15625 197.644531 " fill-opacity="1" fill-rule="nonzero"/><path fill="#002fa7" d="M 338.832031 200.734375 C 339.183594 199.410156 339.183594 197.679688 340.757812 197.199219 C 342.34375 202.921875 343.238281 208.808594 344.660156 214.566406 C 344.324219 214.617188 343.660156 214.71875 343.332031 214.769531 C 343.019531 213.097656 342.667969 211.433594 342.394531 209.761719 C 340.945312 209.726562 339.492188 209.722656 338.054688 209.726562 C 337.320312 211.5 337.824219 214.214844 335.753906 215.097656 C 336.578125 210.269531 337.867188 205.53125 338.832031 200.734375 Z M 338.832031 200.734375 " fill-opacity="1" fill-rule="nonzero"/><path fill="#002fa7" d="M 147.699219 199.621094 C 147.664062 198.605469 148.519531 198.316406 149.332031 198.082031 C 150.621094 204.003906 151.996094 209.90625 153.125 215.863281 C 150.855469 215.222656 151.535156 212.296875 150.773438 210.546875 C 149.304688 210.539062 147.835938 210.550781 146.359375 210.570312 C 145.730469 212.34375 146.261719 215.039062 144.21875 215.957031 C 145.054688 210.453125 146.554688 205.070312 147.699219 199.621094 Z M 147.699219 199.621094 " fill-opacity="1" fill-rule="nonzero"/><path fill="#002fa7" d="M 154.785156 215.589844 C 154.832031 209.703125 154.59375 203.800781 154.914062 197.914062 C 155.839844 198.183594 156.558594 198.820312 156.78125 199.761719 C 158.457031 203.945312 159.738281 208.289062 161.644531 212.378906 C 162.011719 207.460938 161.316406 202.488281 162.046875 197.601562 C 163.210938 199.011719 162.738281 200.875 162.832031 202.535156 C 162.679688 207.007812 163.128906 211.511719 162.492188 215.957031 C 161.855469 215.507812 161.183594 215.039062 160.984375 214.230469 C 159.28125 210.023438 157.894531 205.695312 156.085938 201.535156 C 155.832031 206.203125 156.015625 210.886719 155.9375 215.566406 Z M 154.785156 215.589844 " fill-opacity="1" fill-rule="nonzero"/><path fill="#002fa7" d="M 177.5 201.101562 C 177.828125 199.875 177.832031 198.304688 179.265625 197.773438 C 180.328125 201.085938 180.875 204.53125 181.671875 207.914062 C 182.179688 210.582031 183.046875 213.207031 183.082031 215.945312 C 181.210938 214.753906 181.542969 212.296875 180.976562 210.421875 C 179.523438 210.394531 178.074219 210.394531 176.621094 210.410156 C 175.867188 212.214844 176.382812 214.976562 174.28125 215.886719 C 175.1875 210.925781 176.453125 206.035156 177.5 201.101562 Z M 177.5 201.101562 " fill-opacity="1" fill-rule="nonzero"/><path fill="#002fa7" d="M 184.835938 198.148438 C 185.304688 198.160156 186.234375 198.175781 186.699219 198.1875 C 187.703125 203.097656 188.589844 208.035156 189.757812 212.910156 C 191.164062 208.128906 191.636719 203.121094 192.980469 198.324219 C 193.390625 198.234375 194.222656 198.054688 194.632812 197.960938 C 194.742188 202.40625 194.65625 206.859375 194.683594 211.3125 C 194.609375 212.902344 195.046875 214.753906 193.707031 215.96875 C 193.273438 211.03125 193.8125 206.058594 193.398438 201.121094 C 192.085938 205.945312 191.433594 210.925781 190.253906 215.789062 C 189.96875 215.566406 189.402344 215.121094 189.121094 214.898438 C 187.96875 210.277344 187.394531 205.515625 186.101562 200.921875 C 185.867188 205.722656 186.03125 210.539062 185.980469 215.347656 C 185.699219 215.347656 185.136719 215.347656 184.855469 215.347656 C 184.84375 209.617188 184.859375 203.882812 184.835938 198.148438 Z M 184.835938 198.148438 " fill-opacity="1" fill-rule="nonzero"/><path fill="#002fa7" d="M 201.296875 198.164062 C 203.765625 198.125 206.242188 198.128906 208.714844 198.128906 C 208.710938 198.605469 208.691406 199.550781 208.6875 200.027344 C 206.667969 200.03125 204.648438 200.027344 202.628906 200.042969 C 202.613281 201.914062 202.601562 203.789062 202.648438 205.660156 C 204.542969 205.699219 206.441406 205.695312 208.335938 205.695312 C 208.3125 206.121094 208.269531 206.976562 208.253906 207.402344 C 206.375 207.421875 204.496094 207.425781 202.625 207.480469 C 202.617188 209.488281 202.582031 211.492188 202.628906 213.5 C 204.703125 213.507812 206.765625 213.460938 208.839844 213.472656 C 208.84375 213.925781 208.851562 214.835938 208.855469 215.289062 C 206.328125 215.3125 203.808594 215.347656 201.285156 215.261719 C 201.625 209.5625 201.265625 203.863281 201.296875 198.164062 Z M 201.296875 198.164062 " fill-opacity="1" fill-rule="nonzero"/><path fill="#002fa7" d="M 211.089844 197.84375 C 211.429688 197.976562 212.113281 198.242188 212.453125 198.371094 C 214.472656 202.910156 215.859375 207.71875 217.847656 212.277344 C 218.058594 207.636719 217.753906 202.980469 217.996094 198.339844 L 219.054688 197.871094 C 219.160156 203.648438 219.058594 209.429688 219.09375 215.203125 C 218.617188 215.226562 218.140625 215.25 217.667969 215.273438 C 215.835938 210.65625 214.320312 205.90625 212.265625 201.382812 C 212.050781 206.023438 212.203125 210.667969 212.167969 215.308594 L 211.039062 215.289062 C 211.066406 209.476562 210.960938 203.660156 211.089844 197.84375 Z M 211.089844 197.84375 " fill-opacity="1" fill-rule="nonzero"/><path fill="#002fa7" d="M 274.9375 197.984375 C 277.113281 197.859375 279.367188 197.5625 281.503906 198.21875 C 283.832031 200.3125 283.335938 204.035156 281.929688 206.527344 C 283.417969 209.148438 282.660156 212.273438 283.234375 215.117188 C 282.90625 215.105469 282.257812 215.082031 281.9375 215.070312 C 281.761719 213.039062 281.882812 210.980469 281.5625 208.964844 C 280.828125 206.761719 278.039062 207.902344 276.335938 207.632812 C 276.148438 210.105469 276.167969 212.585938 276.265625 215.0625 C 275.820312 215.117188 275.382812 215.167969 274.945312 215.222656 C 274.9375 209.476562 274.957031 203.730469 274.9375 197.984375 Z M 274.9375 197.984375 " fill-opacity="1" fill-rule="nonzero"/><path fill="transparent" d="M 276.265625 200.101562 C 276.886719 198.925781 278.605469 199.667969 279.6875 199.527344 C 282.484375 199.851562 282.457031 203.933594 280.851562 205.566406 C 279.328125 205.90625 277.753906 205.730469 276.207031 205.722656 C 276.214844 203.847656 276.089844 201.96875 276.265625 200.101562 Z M 276.265625 200.101562 " fill-opacity="1" fill-rule="nonzero"/><path fill="transparent" d="M 233.089844 199.726562 C 234.289062 198.902344 235.835938 199.632812 236.585938 200.726562 C 238.175781 202.910156 238.082031 205.792969 237.9375 208.371094 C 237.824219 210.523438 237.015625 213.050781 234.828125 213.902344 C 232.179688 214.25 230.957031 211.21875 230.6875 209.058594 C 230.246094 205.929688 230.28125 201.785156 233.089844 199.726562 Z M 233.089844 199.726562 " fill-opacity="1" fill-rule="nonzero"/><path fill="transparent" d="M 256.660156 199.761719 C 258.109375 199.855469 259.742188 199.417969 261.058594 200.1875 C 262.1875 201.714844 262.105469 203.957031 261.042969 205.492188 C 259.730469 206.292969 258.121094 205.921875 256.671875 205.980469 C 256.628906 203.90625 256.636719 201.832031 256.660156 199.761719 Z M 256.660156 199.761719 " fill-opacity="1" fill-rule="nonzero"/><path fill="transparent" d="M 296.46875 213.253906 C 296.375 208.65625 296.382812 204.046875 296.453125 199.445312 C 298.136719 199.457031 300.335938 199.070312 301.347656 200.816406 C 302.792969 203.519531 302.597656 206.789062 302.121094 209.722656 C 301.953125 211.21875 301 212.394531 299.882812 213.320312 C 298.738281 213.296875 297.597656 213.277344 296.46875 213.253906 Z M 296.46875 213.253906 " fill-opacity="1" fill-rule="nonzero"/><path fill="transparent" d="M 306.859375 208 C 307.433594 205.386719 307.921875 202.746094 308.667969 200.171875 C 309.453125 202.742188 309.890625 205.386719 310.359375 208.023438 C 309.191406 208.023438 308.019531 208.019531 306.859375 208 Z M 306.859375 208 " fill-opacity="1" fill-rule="nonzero"/><path fill="transparent" d="M 338.457031 207.929688 C 338.902344 205.234375 339.488281 202.558594 340.199219 199.921875 C 340.851562 202.484375 341.492188 205.074219 341.738281 207.71875 C 340.652344 207.90625 339.546875 207.902344 338.457031 207.929688 Z M 338.457031 207.929688 " fill-opacity="1" fill-rule="nonzero"/><path fill="transparent" d="M 148.667969 200.757812 C 149.363281 203.347656 149.832031 206 150.300781 208.644531 C 149.128906 208.648438 147.964844 208.644531 146.792969 208.632812 C 147.378906 206 147.847656 203.332031 148.667969 200.757812 Z M 148.667969 200.757812 " fill-opacity="1" fill-rule="nonzero"/><path fill="transparent" d="M 178.757812 200.75 C 179.59375 203.300781 179.957031 205.96875 180.542969 208.585938 C 179.355469 208.589844 178.171875 208.597656 176.992188 208.589844 C 177.488281 205.957031 178.015625 203.324219 178.757812 200.75 Z M 178.757812 200.75 " fill-opacity="1" fill-rule="nonzero"/><path fill="#002fa7" d="M 314.789062 212.734375 C 315.167969 212.699219 315.9375 212.632812 316.324219 212.597656 C 316.347656 214.535156 316.445312 216.609375 315.140625 218.210938 C 315.261719 217.332031 315.480469 216.480469 315.683594 215.617188 C 315.144531 214.742188 314.964844 213.730469 314.789062 212.734375 Z M 314.789062 212.734375 " fill-opacity="1" fill-rule="nonzero"/><path fill="#002fa7" d="M 332.617188 212.570312 C 332.949219 212.570312 333.617188 212.558594 333.953125 212.558594 C 333.945312 213.285156 333.941406 214.007812 333.933594 214.734375 C 333.605469 214.734375 332.949219 214.734375 332.625 214.734375 C 332.617188 214.015625 332.617188 213.296875 332.617188 212.570312 Z M 332.617188 212.570312 " fill-opacity="1" fill-rule="nonzero"/><path fill="#002fa7" d="M 346.246094 212.609375 C 346.597656 212.59375 347.285156 212.558594 347.632812 212.539062 C 347.5625 213.378906 347.480469 214.214844 347.390625 215.058594 C 346.351562 214.636719 346.410156 213.535156 346.246094 212.609375 Z M 346.246094 212.609375 " fill-opacity="1" fill-rule="nonzero"/></svg>