<svg xmlns="http://www.w3.org/2000/svg" xmlns:xlink="http://www.w3.org/1999/xlink" width="506" zoomAndPan="magnify" viewBox="0 0 379.5 379.500002" height="506" preserveAspectRatio="xMidYMid meet" version="1.0"><defs><clipPath id="90f25ab678"><path d="M 13.507812 20.234375 L 365.546875 20.234375 L 365.546875 372.269531 L 13.507812 372.269531 Z M 13.507812 20.234375 " clip-rule="nonzero"/></clipPath><clipPath id="a6fc9a04df"><path d="M 15 20.234375 L 243 20.234375 L 243 246 L 15 246 Z M 15 20.234375 " clip-rule="nonzero"/></clipPath><clipPath id="b81a6d8e14"><path d="M 137 136 L 365.546875 136 L 365.546875 364 L 137 364 Z M 137 136 " clip-rule="nonzero"/></clipPath></defs><g clip-path="url(#90f25ab678)"><path fill="#ffffff" d="M 13.515625 20.234375 L 1164.785156 20.234375 L 1164.785156 413.652344 L 13.515625 413.652344 Z M 13.515625 20.234375 " fill-opacity="1" fill-rule="nonzero"/></g><g clip-path="url(#a6fc9a04df)"><path fill="#002fa7" d="M 42.109375 166.980469 C 91.390625 118.238281 140.320312 69.101562 189.972656 20.710938 C 208.132812 37.273438 225.507812 54.667969 242.921875 71.980469 C 228.589844 79.496094 215.320312 89.394531 205.378906 102.25 C 193.183594 118.960938 186.328125 138.878906 174.09375 155.570312 C 164.648438 168.179688 150.507812 175.902344 136.863281 183.109375 C 120.609375 191.703125 103.878906 200.398438 91.121094 213.960938 C 82.199219 223.15625 75.46875 234.210938 69.941406 245.726562 C 51.574219 228.125 34.160156 209.488281 15.359375 192.363281 C 25.132812 184.847656 33.25 175.511719 42.109375 166.980469 Z M 42.109375 166.980469 " fill-opacity="1" fill-rule="nonzero"/></g><path fill="#002fa7" d="M 216.519531 113.351562 C 225.628906 99.558594 240.1875 90.675781 254.640625 83.347656 C 259.691406 88.210938 264.683594 93.183594 269.777344 98.027344 C 255.550781 105.957031 241.574219 115.460938 232.089844 128.960938 C 218.320312 147.660156 211.882812 171.078125 195.773438 188.140625 C 179.164062 203.855469 156.988281 211.375 138.207031 223.921875 C 120.109375 235.476562 105.511719 252.414062 96.960938 272.144531 C 92.324219 267.363281 87.582031 262.703125 82.738281 258.128906 C 86.007812 246.054688 92.53125 235.019531 101.207031 226.035156 C 122.949219 201.929688 157.15625 195.140625 180.054688 172.488281 C 196.164062 155.402344 203.453125 132.503906 216.519531 113.351562 Z M 216.519531 113.351562 " fill-opacity="1" fill-rule="nonzero"/><path fill="#002fa7" d="M 245.757812 136.355469 C 254.910156 124.449219 267.871094 116.1875 281.207031 109.644531 C 286.878906 114.695312 292.304688 120.015625 297.523438 125.523438 C 284.664062 132.128906 272.757812 140.765625 263.253906 151.699219 C 249.089844 169.070312 242.070312 190.875 229.089844 208.992188 C 210.347656 233.261719 178.089844 239.804688 155.269531 259.121094 C 141.914062 269.621094 131.457031 283.679688 124.769531 299.269531 C 119.636719 294.40625 114.519531 289.5 109.714844 284.28125 C 116.054688 261.773438 133.320312 243.921875 153.34375 232.679688 C 171.917969 221.851562 192.5 213.484375 207.78125 197.914062 C 224.492188 180.085938 231.53125 155.902344 245.757812 136.355469 Z M 245.757812 136.355469 " fill-opacity="1" fill-rule="nonzero"/><g clip-path="url(#b81a6d8e14)"><path fill="#002fa7" d="M 273.214844 164.058594 C 282.550781 151.84375 295.761719 143.25 309.554688 136.808594 C 328.332031 154.949219 346.824219 173.398438 365.355469 191.785156 C 307.027344 248.996094 249.152344 306.664062 190.925781 363.980469 C 172.972656 346.8125 155.144531 329.523438 137.484375 312.046875 C 140.464844 299.519531 147.527344 288.316406 156.367188 279.082031 C 179.082031 254.609375 215.152344 248.542969 237.289062 223.363281 C 252.671875 205.804688 259.503906 182.777344 273.214844 164.058594 Z M 273.214844 164.058594 " fill-opacity="1" fill-rule="nonzero"/></g></svg>